C:\GBW_MyPrograms\KinderuniversiteitApp\Resultaten\Ellis\Maui\Maui_v1.mot
version=1
nRows=8
nColumns=29
inDegrees=yes
endheader
                time	         pelvis_tilt	           pelvis_tx	           pelvis_ty	       hip_flexion_l	       hip_flexion_r	        knee_angle_l	        knee_angle_r	       ankle_angle_l	       ankle_angle_r	    lumbar_extension	hamstrings_r/activation	bifemsh_r/activation	glut_max_r/activation	iliopsoas_r/activation	rect_fem_r/activation	  vasti_r/activation	gastroc_r/activation	 soleus_r/activation	tib_ant_r/activation	hamstrings_l/activation	bifemsh_l/activation	glut_max_l/activation	iliopsoas_l/activation	rect_fem_l/activation	  vasti_l/activation	gastroc_l/activation	 soleus_l/activation	tib_ant_l/activation	
          1.32021405	          2.90335233	          1.63693488	          0.93221170	          4.87431538	        -25.35206191	          4.76925610	         -1.48610763	         -7.45834188	        -19.01809045	        -12.61318473	          0.05000001	          0.06991403	          0.05000000	          0.28738837	          0.12983009	          0.05000000	          0.12845864	          0.19222220	          0.05000000	          0.13582496	          0.19022266	          0.06376410	          0.05007444	          0.08644796	          0.18381251	          0.10838134	          0.05046253	          0.17439798	
          1.32901548	          2.67753669	          1.65077250	          0.93062564	          4.64055270	        -25.00879548	          4.72356536	         -2.99069435	         -7.44343795	        -19.98352437	        -12.03207955	          0.05000001	          0.06097031	          0.05000000	          0.27436935	          0.15590415	          0.05000000	          0.11202556	          0.18987674	          0.05000000	          0.13654972	          0.22086001	          0.07692338	          0.05148940	          0.07538911	          0.16029829	          0.11095679	          0.05000000	          0.18275000	
          1.33781691	          2.44061746	          1.66507743	          0.92917750	          4.28600527	        -24.65160052	          4.21581552	         -4.49565674	         -7.18783461	        -21.11462824	        -11.37837103	          0.05000001	          0.05317070	          0.06832589	          0.25491883	          0.15731880	          0.05733452	          0.09769468	          0.16558675	          0.06962795	          0.13197065	          0.24374872	          0.07999161	          0.05000000	          0.06574495	          0.13979212	          0.11835126	          0.05000003	          0.17450343	
          1.34661833	          2.19717852	          1.67976567	          0.92782080	          3.73754016	        -24.36735119	          3.84242747	         -5.89150101	         -6.62687357	        -22.17688086	        -10.66672974	          0.05450872	          0.06154722	          0.11728508	          0.24536591	          0.13719379	          0.05000000	          0.08519709	          0.14440406	          0.10957277	          0.12354109	          0.27098047	          0.07708937	          0.05000000	          0.05733452	          0.12190920	          0.12660178	          0.05000001	          0.16295842	
          1.35541976	          1.94798805	          1.69451835	          0.92661631	          3.02622054	        -24.14026663	          3.78871090	         -7.18500981	         -6.01382689	        -22.78591954	         -9.93884479	          0.05093569	          0.06034211	          0.15310475	          0.23490199	          0.18938155	          0.05733451	          0.07429825	          0.13151397	          0.09999215	          0.11639788	          0.31069368	          0.06722771	          0.05000000	          0.05000000	          0.10631396	          0.13920916	          0.06056536	          0.15064454	
          1.36422119	          1.69436503	          1.70911584	          0.92572935	          2.22641347	        -24.08946724	          3.95242328	         -7.87416292	         -5.56735125	        -22.63883695	         -9.22464121	          0.06635078	          0.09024361	          0.18362783	          0.23065204	          0.16515493	          0.05000000	          0.06479364	          0.11469004	          0.12379390	          0.10990711	          0.35447830	          0.06194505	          0.05000000	          0.05000000	          0.09271374	          0.15142290	          0.07105276	          0.14263255	
          1.37302261	          1.43996455	          1.72340939	          0.92536757	          1.41208019	        -24.17915373	          4.20357140	         -7.98765041	         -5.29004645	        -22.09470163	         -8.54754210	          0.07598871	          0.11200227	          0.20248374	          0.22505162	          0.18930148	          0.05000000	          0.05650491	          0.10001831	          0.11897893	          0.10378842	          0.39885588	          0.06089645	          0.05000000	          0.05000000	          0.08085333	          0.16244601	          0.07875883	          0.13803662	
          1.38182404	          1.19018494	          1.73729726	          0.92559346	          0.65564840	        -24.31856467	          4.40407131	         -7.78418775	         -5.14760938	        -21.45097108	         -7.92603052	          0.08605228	          0.13089978	          0.21606251	          0.22862609	          0.18929458	          0.05000001	          0.05141933	          0.08722346	          0.11655512	          0.09854564	          0.43614433	          0.06367560	          0.05000000	          0.05000000	          0.07051017	          0.17128849	          0.08639775	          0.13575875	
